HIERARCHY
ROOT hip
{
  OFFSET 0 0 0
  CHANNELS 6 Xposition Yposition Zposition Zrotation Yrotation Xrotation
  JOINT abdomen
  {
    OFFSET 0 20.6881 -0.73152
    CHANNELS 3 Zrotation Xrotation Yrotation
    JOINT chest
    {
      OFFSET 0 11.7043 -0.48768
      CHANNELS 3 Zrotation Xrotation Yrotation
      JOINT neck
      {
        OFFSET 0 22.1894 -2.19456
        CHANNELS 3 Zrotation Xrotation Yrotation
        JOINT head
        {
          OFFSET -0.24384 7.07133 1.2192
          CHANNELS 3 Zrotation Xrotation Yrotation
          JOINT leftEye
          {
            OFFSET 4.14528 8.04674 8.04672
            CHANNELS 3 Zrotation Xrotation Yrotation
            End Site
            {
              OFFSET 1 0 0
            }
          }
          JOINT rightEye
          {
            OFFSET -3.6576 8.04674 8.04672
            CHANNELS 3 Zrotation Xrotation Yrotation
            End Site
            {
              OFFSET 1 0 0
            }
          }
        }
      }
      JOINT rCollar
      {
        OFFSET -2.68224 19.2634 -4.8768
        CHANNELS 3 Zrotation Xrotation Yrotation
        JOINT rShldr
        {
          OFFSET -8.77824 -1.95073 1.46304
          CHANNELS 3 Zrotation Xrotation Yrotation
          JOINT rForeArm
          {
            OFFSET -28.1742 -1.7115 0.48768
            CHANNELS 3 Zrotation Xrotation Yrotation
            JOINT rHand
            {
              OFFSET -22.5879 0.773209 7.07136
              CHANNELS 3 Zrotation Xrotation Yrotation
              JOINT rThumb1
              {
                OFFSET -1.2192 -0.487915 3.41376
                CHANNELS 3 Zrotation Xrotation Yrotation
                JOINT rThumb2
                {
                  OFFSET -3.37035 -0.52449 3.41376
                  CHANNELS 3 Zrotation Xrotation Yrotation
                  End Site
                  {
                    OFFSET -1.78271 -1.18214 1.43049
                  }
                }
              }
              JOINT rIndex1
              {
                OFFSET -7.75947 0.938293 5.60832
                CHANNELS 3 Zrotation Xrotation Yrotation
                JOINT rIndex2
                {
                  OFFSET -2.54057 -0.884171 1.56538
                  CHANNELS 3 Zrotation Xrotation Yrotation
                  End Site
                  {
                    OFFSET -1.62519 -0.234802 1.16502
                  }
                }
              }
              JOINT rMid1
              {
                OFFSET -8.24714 1.18213 3.41376
                CHANNELS 3 Zrotation Xrotation Yrotation
                JOINT rMid2
                {
                  OFFSET -3.10165 -0.590103 1.0647
                  CHANNELS 3 Zrotation Xrotation Yrotation
                  End Site
                  {
                    OFFSET -2.48547 -0.328903 0.83742
                  }
                }
              }
              JOINT rRing1
              {
                OFFSET -8.82822 0.546677 1.51678
                CHANNELS 3 Zrotation Xrotation Yrotation
                JOINT rRing2
                {
                  OFFSET -2.60934 -0.819778 -0.0198488
                  CHANNELS 3 Zrotation Xrotation Yrotation
                  End Site
                  {
                    OFFSET -2.33842 -0.294052 0.168128
                  }
                }
              }
              JOINT rPinky1
              {
                OFFSET -8.27202 -0.0477905 -0.4584
                CHANNELS 3 Zrotation Xrotation Yrotation
                JOINT rPinky2
                {
                  OFFSET -1.82734 -0.647385 -0.700984
                  CHANNELS 3 Zrotation Xrotation Yrotation
                  End Site
                  {
                    OFFSET -1.69225 -0.51767 -0.607171
                  }
                }
              }
            }
          }
        }
      }
      JOINT lCollar
      {
        OFFSET 2.68224 19.2634 -4.8768
        CHANNELS 3 Zrotation Xrotation Yrotation
        JOINT lShldr
        {
          OFFSET 8.77824 -1.95073 1.46304
          CHANNELS 3 Zrotation Xrotation Yrotation
          JOINT lForeArm
          {
            OFFSET 28.1742 -1.7115 0.48768
            CHANNELS 3 Zrotation Xrotation Yrotation
            JOINT lHand
            {
              OFFSET 22.5879 0.773209 7.07136
              CHANNELS 3 Zrotation Xrotation Yrotation
              JOINT lThumb1
              {
                OFFSET 1.2192 -0.487915 3.41376
                CHANNELS 3 Zrotation Xrotation Yrotation
                JOINT lThumb2
                {
                  OFFSET 3.37035 -0.52449 3.41376
                  CHANNELS 3 Zrotation Xrotation Yrotation
                  End Site
                  {
                    OFFSET 1.78271 -1.18214 1.43049
                  }
                }
              }
              JOINT lIndex1
              {
                OFFSET 7.75947 0.938293 5.60832
                CHANNELS 3 Zrotation Xrotation Yrotation
                JOINT lIndex2
                {
                  OFFSET 2.54057 -0.884171 1.56538
                  CHANNELS 3 Zrotation Xrotation Yrotation
                  End Site
                  {
                    OFFSET 1.62519 -0.234802 1.16502
                  }
                }
              }
              JOINT lMid1
              {
                OFFSET 8.24714 1.18213 3.41376
                CHANNELS 3 Zrotation Xrotation Yrotation
                JOINT lMid2
                {
                  OFFSET 3.10165 -0.590103 1.0647
                  CHANNELS 3 Zrotation Xrotation Yrotation
                  End Site
                  {
                    OFFSET 2.48547 -0.328903 0.83742
                  }
                }
              }
              JOINT lRing1
              {
                OFFSET 8.82822 0.546677 1.51678
                CHANNELS 3 Zrotation Xrotation Yrotation
                JOINT lRing2
                {
                  OFFSET 2.60934 -0.819778 -0.0198488
                  CHANNELS 3 Zrotation Xrotation Yrotation
                  End Site
                  {
                    OFFSET 2.33842 -0.294052 0.168128
                  }
                }
              }
              JOINT lPinky1
              {
                OFFSET 8.27202 -0.0477905 -0.4584
                CHANNELS 3 Zrotation Xrotation Yrotation
                JOINT lPinky2
                {
                  OFFSET 1.82734 -0.647385 -0.700984
                  CHANNELS 3 Zrotation Xrotation Yrotation
                  End Site
                  {
                    OFFSET 1.69225 -0.51767 -0.607171
                  }
                }
              }
            }
          }
        }
      }
    }
  }
  JOINT rButtock
  {
    OFFSET -8.77824 4.35084 1.2192
    CHANNELS 3 Zrotation Xrotation Yrotation
    JOINT rThigh
    {
      OFFSET 0 -1.70687 -2.19456
      CHANNELS 3 Zrotation Xrotation Yrotation
      JOINT rShin
      {
        OFFSET 0 -36.8199 0.73152
        CHANNELS 3 Zrotation Xrotation Yrotation
        JOINT rFoot
        {
          OFFSET 0.73152 -45.1104 -5.12064
          CHANNELS 3 Zrotation Xrotation Yrotation
          End Site
          {
            OFFSET -1.1221 -3.69964 12.103
          }
        }
      }
    }
  }
  JOINT lButtock
  {
    OFFSET 8.77824 4.35084 1.2192
    CHANNELS 3 Zrotation Xrotation Yrotation
    JOINT lThigh
    {
      OFFSET 0 -1.70687 -2.19456
      CHANNELS 3 Zrotation Xrotation Yrotation
      JOINT lShin
      {
        OFFSET 0 -36.8199 0.73152
        CHANNELS 3 Zrotation Xrotation Yrotation
        JOINT lFoot
        {
          OFFSET -0.73152 -45.1104 -5.12064
          CHANNELS 3 Zrotation Xrotation Yrotation
          End Site
          {
            OFFSET 1.1221 -3.69964 12.103
          }
        }
      }
    }
  }
}
MOTION
Frames:	5
Frame Time:	0.03333
-5.913 70.1755 56.417300000000004 -4.702567 9.863996 6.040657 8.844626 9.558243 -54.614916 7.862579 -6.25212 54.957981 -2.158353 33.123464 -170.208405 8.018818 45.412568 156.607734 3e-05 0.0 0.003913 -0.00056 0.0 -0.001784 -81.556844 68.340965 84.666394 -62.814845 -11.193604 0.67845 19.338223 65.702535 -159.159076 -163.421523 17.46698 137.509503 13.433184 -13.378718 -0.499715 -126.230767 -9.414002 113.630678 -25.063937 28.968534 18.144051 -170.091376 -21.00916 110.390869 -153.13265 14.076788 138.729634 -4.808398 20.787869 4.660929 -145.092858 -1.903109 -178.530348 -47.363214 -76.762862 -68.923149 -57.967538 -50.964556 -56.608554 -151.609426 29.164229 -146.414469 152.863105 10.886174 -158.440131 64.676372 21.683807 13.055602 176.241654 -23.241607 121.436543 10.278447 52.017302 -6.184899 -7.194743 -7.186047 0.660576 24.453652 21.953882 -17.592912 137.57774 6.256829 -114.289431 3.79739 22.316363 3.576229 -0.528393 -1.553235 0.288256 162.725553 -3.081692 -143.166789 0.039534 -2.578521 0.810744 -10.975828 -6.863555 0.912097 101.58529 -46.051937 99.780883 16.77722 -34.234961 19.224702 0.000479 -0.000132 0.000921 6.594968 -43.071598 -171.564505 -48.792578 -64.186318 -176.804913 -154.900603 51.315419 62.541177 -0.011556 -0.00082 -0.009098 12.557911 -49.917903 -47.217625 -113.873668 37.287748 -151.677183 -145.318245 39.795568 73.737482
-5.8203 70.0827 58.8021 -4.700629 8.621773 5.750632 6.659133 6.160007 174.426082 -2.635353 6.225085 -174.120012 -12.444605 19.299345 -57.255952 33.52053 -7.038623 50.563953 0.001824 -0.0 -0.003989 0.001824 -0.0 -0.003989 -9.572139 34.661015 11.113194 -57.910667 -0.143808 56.242361 -109.81563 66.217408 -37.916064 -175.82997 -18.436108 145.181311 -178.537021 -16.079829 89.472984 -99.896894 16.325251 41.233116 59.377015 -70.18132 14.836758 7.601095 14.737238 -2.125333 -158.092199 1.050908 141.905255 -178.434255 -45.634576 141.69151 0.005528 1.100134 0.347084 11.41731 -26.802733 -3.216201 0.938551 2.503403 0.863884 -145.768279 6.517915 -142.399082 145.352781 34.700776 -149.943916 74.336577 17.131097 -6.423555 114.469917 -22.778244 89.633486 -9.001505 -16.325924 -4.575285 -168.9736 -27.124904 -86.599672 -3.547512 -66.458966 1.434041 148.331233 -11.598892 -120.021004 -49.049783 -57.541873 -3.255874 3.217858 8.862799 -1.950917 -167.68902 -64.40251 -132.94212 0.00089 -0.099292 0.032059 18.743051 71.135728 -31.715834 -8.944404 28.576046 -7.828156 154.018075 33.534028 147.726961 0.010686 -0.00056 0.010025 5.53978 -38.466777 39.337035 74.514574 35.295914 35.264462 29.219148 53.668379 -154.75102 -179.96606 75.748448 -0.028321 -171.49595 19.000241 -107.793989 -102.871891 -10.272582 129.852616 -129.387688 -7.608469 31.105431
-5.7982 69.9403 61.246199999999995 -5.132144 7.18549 5.546531 8.560229 10.540213 -46.807576 8.053798 -7.027488 48.131185 -12.948544 20.090325 -65.104528 35.436661 -2.839198 57.516472 0.001451 0.0 0.001615 0.000742 -0.0 -0.004067 3.291575 -27.030577 -5.291992 -101.834249 -3.821073 133.177499 7.024201 46.049354 -157.554317 -166.730784 12.273145 139.395911 -168.458948 -6.139242 89.88785 -27.142313 -33.199232 5.682944 -149.246041 -13.271079 120.38529 -157.601261 -6.943421 119.245261 -2.614019 7.281532 1.561598 -4.386481 20.129136 4.056689 0.000299 0.030129 0.010843 9.458016 10.459322 1.331795 -159.458726 64.41973 -151.049472 -157.180289 40.101144 -146.832036 -3.065521 -24.3905 4.809193 91.919443 -31.845081 -158.93119 -49.090452 15.141912 121.349144 172.33418 24.6829 -141.428977 66.676699 37.711993 -34.393399 -87.130424 -53.690773 -29.640425 146.395157 -8.123056 -119.176414 167.740277 -26.476927 -118.893401 155.367618 8.526976 -140.243889 2.061541 14.388145 -2.959332 0.043004 5.584463 -1.757912 -3.804538 41.633826 -7.745084 149.916673 28.521738 145.840532 -14.107024 36.181677 -5.428482 -179.977421 75.749434 -0.018469 -173.301271 37.43822 174.927494 -53.260068 -69.125469 -127.320198 87.214352 61.964193 166.589182 -0.003477 0.000207 -0.001797 13.289895 -61.106192 151.851507 107.296825 -51.190048 -41.923919 -17.231859 6.615861 -22.062254
-5.7853 69.8534 63.70440000000001 -5.770185 5.762611 5.365222 4.694197 8.200412 120.03693 -9.248205 0.197356 -117.616015 -11.918189 16.059549 -43.805346 29.576742 -12.995912 37.990184 -0.000178 0.0 -0.003708 -0.000178 0.0 -0.003708 -1.063301 -75.323524 -20.302019 75.351897 40.667443 -10.18007 83.514821 62.338023 60.242723 -29.796603 34.711068 10.646964 3.464454 -3.446408 -0.428644 106.378782 -84.804511 36.288127 20.45014 -36.527757 -5.958988 9.317198 8.890152 -0.491421 4.594389 -14.171657 -2.122011 -161.478855 0.793931 142.673111 -145.12338 1.38697 -179.564864 11.003398 12.153596 -7.554659 -141.920866 2.504525 -138.891006 -3.372662 -13.074346 -6.785333 149.172141 24.767336 -154.146804 65.493884 11.510502 19.778475 -139.339024 -18.416871 115.832861 23.73494 29.11628 -6.03438 178.404872 -15.954709 -89.490207 114.725818 17.298178 -52.940353 -10.934124 -19.397295 4.779465 26.618666 39.793926 -20.922309 160.417665 -5.875239 -143.124598 146.807775 33.307581 -133.245625 0.006141 -0.508818 0.158937 -8.383715 20.376165 -2.88498 -13.524842 46.467571 -11.090969 171.36151 75.118262 145.531942 -0.00884 0.000996 -0.007779 8.355463 -34.588383 -122.953942 -80.214354 -27.749702 -63.989202 89.781875 -37.531335 162.182592 -179.998092 75.748711 -0.003165 -173.310664 11.155092 74.753276 105.545184 21.91994 137.197714 96.021488 -20.837421 -176.150099
-5.7691 69.8648 66.19 -6.339144 4.481821 5.440536 4.547264 8.442773 122.240765 -9.510426 0.41601 -118.100717 -14.526991 21.550824 -79.353912 38.200017 7.42532 67.886483 -0.003418 0.0 -0.002129 0.002236 -0.0 -0.002932 -152.230093 13.685469 157.677749 -63.601178 -42.712023 -31.317238 58.605151 -68.057363 -176.300525 -18.934823 11.451325 1.07769 -161.191453 1.099348 89.084709 50.764873 -62.249467 40.30153 -29.240485 31.832975 21.622561 49.820992 -49.138719 10.486324 -164.148492 -17.704096 144.592762 9.55344 -19.184969 -1.123236 -1.426991 23.367978 7.758342 9.327397 -18.628055 -2.668008 6.761763 20.642187 6.029267 -21.677523 -38.852779 -22.099041 107.002686 65.222308 -110.408699 111.115446 51.126848 -39.414326 71.037765 2.078063 141.13823 177.176426 -53.628252 -154.830831 170.7212 -8.404275 -89.95082 7.097159 -49.515128 -6.41072 -23.280754 -41.089248 5.686946 -8.80519 10.18589 0.513768 176.741284 -52.309145 -143.709436 157.859783 10.966729 -140.614232 -0.004223 1.038468 -0.3273 155.158341 3.512581 -171.393372 156.24969 53.229332 150.055845 -2.387363 1.998501 1.111704 -0.000841 0.000433 6.6e-05 8.020397 -32.231309 -166.469243 -57.09568 -70.400344 -16.69261 -176.322466 -3.979685 -98.97972 0.000172 -0.000203 0.000363 21.70432 -67.737556 -173.373026 105.50087 -66.564628 -155.675229 8.137648 10.316437 85.294512
